<svg id="Layer_1" data-name="Layer 1" xmlns="http://www.w3.org/2000/svg" xmlns:xlink="http://www.w3.org/1999/xlink" viewBox="0 0 180 60"><defs><style>.cls-1,.cls-5{fill:#6d3e91;}.cls-2{fill:#fff;}.cls-3,.cls-4,.cls-6{fill:#7cbb4a;}.cls-3,.cls-4,.cls-5{stroke:#fff;stroke-miterlimit:10;}.cls-3{stroke-width:27px;}.cls-4{stroke-width:22px;}.cls-5{stroke-width:24px;}</style><symbol id="New_Symbol_1" data-name="New Symbol 1" viewBox="0 0 1918.65 1532.35"><path d="M1,1406.69a239.88,239.88,0,0,1,34.42-2.28c18.83,0,31,2.44,40,8,7.57,4.24,12.12,10.76,12.12,19.4,0,10.59-9.31,19.88-24.68,24.12v.33c13.86,2.61,30.09,11.24,30.09,27.54,0,9.46-5,16.63-12.34,22-10.17,7-26.62,10.27-50.43,10.27A291.62,291.62,0,0,1,1,1514.75Zm18.83,45h17.1c19.91,0,31.6-7.82,31.6-18.41,0-12.88-13-17.93-32-17.93a106.86,106.86,0,0,0-16.67,1Zm0,52.65a133.09,133.09,0,0,0,15.8.65c19.48,0,37.45-5.38,37.45-21.35,0-15-17.1-21.19-37.66-21.19H19.83Z"/><path d="M30.22,1517.06A289.76,289.76,0,0,1,.9,1515.75l-.9-.1V1405.83l.84-.13a242.21,242.21,0,0,1,34.58-2.29c19.08,0,31.21,2.43,40.56,8.13,8.23,4.6,12.6,11.61,12.6,20.25,0,10.41-8.48,19.47-22.36,24.15,13.45,3.36,27.77,12.3,27.77,27.84,0,9-4.29,16.63-12.75,22.82C71,1513.64,54.34,1517.06,30.22,1517.06ZM2,1513.85c5,.49,14.62,1.21,28.22,1.21,23.7,0,40-3.3,49.86-10.1,7.9-5.77,11.91-12.9,11.91-21.18,0-15.54-15.77-24-29.27-26.56l-.82-.15v-1.92l.74-.2c14.76-4.07,23.94-13,23.94-23.16,0-7.87-4-14.28-11.61-18.52-9-5.52-20.87-7.86-39.55-7.86A245.88,245.88,0,0,0,2,1407.54ZM35.63,1506a132,132,0,0,1-15.93-.66l-.87-.11v-43.77H35.42c24.2,0,38.66,8.3,38.66,22.19C74.08,1497.83,60.06,1506,35.63,1506Zm-14.8-2.53a146.4,146.4,0,0,0,14.8.53c11,0,36.45-2,36.45-20.35,0-18.73-28.06-20.19-36.66-20.19H20.83Zm16.1-50.77H18.83v-37.22l.84-.13a111.57,111.57,0,0,1,16.83-1c15.07,0,33,3.28,33,18.93C69.53,1445.05,56.73,1452.67,36.93,1452.67Zm-16.1-2h16.1c18.3,0,30.6-7,30.6-17.41,0-11.24-10.44-16.93-31-16.93a117.75,117.75,0,0,0-15.67.83Z"/><path d="M268.31,1459c0,37.81-30.52,57.86-67.75,57.86-38.52,0-65.58-22.49-65.58-55.74,0-34.88,28.79-57.7,67.75-57.7C242.56,1403.43,268.31,1426.41,268.31,1459Zm-113.2,1.79c0,23.47,16.88,44.5,46.54,44.5,29.87,0,46.75-20.7,46.75-45.64,0-21.84-15.15-44.66-46.54-44.66C170.7,1415,155.11,1436.68,155.11,1460.8Z"/><path d="M200.56,1517.87c-39.2,0-66.58-23.33-66.58-56.74,0-34.56,28.27-58.7,68.75-58.7,39.82,0,66.58,22.74,66.58,56.58,0,18.19-7,33.37-20.29,43.89C236.85,1512.56,219.64,1517.87,200.56,1517.87Zm2.17-113.44c-39.3,0-66.75,23.31-66.75,56.7,0,15.95,6.22,29.64,18,39.57s27.86,15.17,46.59,15.17,35.4-5.16,47.22-14.53c12.78-10.14,19.53-24.77,19.53-42.33C267.31,1426.36,241.36,1404.43,202.73,1404.43Zm-1.08,101.87c-14.26,0-26.4-4.76-35.11-13.75a45.28,45.28,0,0,1-12.43-31.75c0-23.29,14.77-46.8,47.75-46.8,14.76,0,27.13,5,35.78,14.47a46.6,46.6,0,0,1,11.76,31.19c0,12.82-4.42,24.49-12.45,32.86C228.3,1501.54,216.1,1506.3,201.65,1506.3Zm.21-90.3c-22.77,0-45.75,13.85-45.75,44.8A43.28,43.28,0,0,0,168,1491.16c8.32,8.59,20,13.14,33.67,13.14,31.6,0,45.75-22.42,45.75-44.64C247.4,1438.63,233.15,1416,201.86,1416Z"/><path d="M336.93,1405.22v65c0,24.61,14.5,35,34,35,21.65,0,35.5-10.76,35.5-35v-65h19v64.06c0,33.74-23.6,47.59-55.2,47.59-29.87,0-52.38-12.88-52.38-46.94v-64.71Z"/><path d="M370.26,1517.87c-34.42,0-53.38-17-53.38-47.94v-65.71h21.05v66c0,29.62,20.66,34,33,34,22.57,0,34.5-11.77,34.5-34v-66h21v65.06c0,16.36-5.43,28.89-16.14,37.24C400.66,1514.05,387.18,1517.87,370.26,1517.87Zm-51.38-111.65v63.71c0,21,8.92,45.94,51.38,45.94,47.15,0,54.2-29.19,54.2-46.59v-63.06h-17v64c0,23.24-13,36-36.5,36-22.23,0-35-13.14-35-36v-64Z"/><path d="M511.17,1417.28H466.8v-12.06h108v12.06H530.22v97.8H511.17Z"/><path d="M531.22,1516.08H510.17v-97.8H465.8v-14.06h110v14.06H531.22Zm-19.05-2h17.05v-97.8H573.8v-10.06h-106v10.06h44.37Z"/><path d="M635.19,1405.22v109.86H616.36V1405.22Z"/><path d="M636.19,1516.08H615.36V1404.22h20.83Zm-18.83-2h16.83V1406.22H617.36Z"/><path d="M813.76,1531.22c-19.69-3.92-39-8.32-55.84-12.72a35.93,35.93,0,0,0-8.87-1.63c-34.63-1-64.29-20.21-64.29-55.58,0-35.21,28.57-57.86,68-57.86,39.6,0,65.36,23.14,65.36,55.58,0,28.2-17.31,46.29-41.55,52.65v.65c14.5,2.77,30.3,5.38,42.63,7Zm-15.58-71.56c0-22-15.15-44.66-46.1-44.66-31.82,0-47.41,22.17-47.19,46-.22,23.31,16.88,44.34,46.32,44.34C781.3,1505.3,798.18,1484.76,798.18,1459.66Z"/><path d="M814.35,1532.35l-.78-.15c-19.44-3.86-38.77-8.27-55.9-12.73a35.23,35.23,0,0,0-8.62-1.6c-32.51-.92-65.29-18.77-65.29-56.58,0-17.39,6.77-32.22,19.57-42.9,12.34-10.29,29.88-16,49.4-16s36.17,5.49,48.19,15.87c11.72,10.12,18.17,24.58,18.17,40.71,0,25.7-14.73,45.27-39.58,52.84,13.81,2.59,28.49,5,39.8,6.48l1.33.17Zm-65.27-16.48a36.92,36.92,0,0,1,9.09,1.66c16.87,4.4,35.87,8.73,55,12.55l4.53-9.95c-11.93-1.61-27.26-4.15-41.36-6.84l-.81-.15v-2.26l.74-.19c25.94-6.8,40.81-25.64,40.81-51.68,0-32.65-25.86-54.58-64.36-54.58-19.05,0-36.14,5.5-48.12,15.49-12.33,10.29-18.85,24.59-18.85,41.37,0,36.47,31.8,53.69,63.31,54.58Zm2.13-9.57c-14,0-26-4.64-34.69-13.41A44.35,44.35,0,0,1,703.89,1461c-.12-13.19,4.46-25.15,12.89-33.66,8.61-8.69,20.82-13.29,35.3-13.29s26.82,5,35.39,14.41a46.16,46.16,0,0,1,11.71,31.25c0,12.89-4.43,24.58-12.48,32.93C778,1501.56,765.77,1506.3,751.21,1506.3Zm.87-90.3c-13.94,0-25.65,4.39-33.88,12.7-8.05,8.12-12.42,19.58-12.31,32.26a42.35,42.35,0,0,0,12.05,30.52c8.31,8.39,19.82,12.82,33.27,12.82,31.76,0,46-22.42,46-44.64C797.18,1438.63,783.07,1416,752.08,1416Z"/><path d="M886.71,1405.22v65c0,24.61,14.5,35,34,35,21.65,0,35.5-10.76,35.5-35v-65h19v64.06c0,33.74-23.6,47.59-55.2,47.59-29.87,0-52.38-12.88-52.38-46.94v-64.71Z"/><path d="M920,1517.87c-34.42,0-53.38-17-53.38-47.94v-65.71h21.05v66c0,29.62,20.66,34,33,34,22.57,0,34.5-11.77,34.5-34v-66h21v65.06c0,16.36-5.43,28.89-16.14,37.24C950.44,1514.05,937,1517.87,920,1517.87Zm-51.38-111.65v63.71c0,21,8.92,45.94,51.38,45.94,47.15,0,54.2-29.19,54.2-46.59v-63.06h-17v64c0,23.24-13,36-36.5,36-22.23,0-35-13.14-35-36v-64Z"/><path d="M1108.78,1463.57h-56.71v39.61h63.21v11.9h-82V1405.22H1112v11.9h-60v34.72h56.71Z"/><path d="M1116.28,1516.08h-84V1404.22H1113v13.9h-60v32.72h56.71v13.73h-56.71v37.61h63.21Zm-82-2h80v-9.9h-63.21v-41.61h56.71v-9.73h-56.71v-36.72h60v-9.9h-76.79Z"/><path d="M1255.1,1405.22v46h70.56v-46h19v109.86h-19v-51.51H1255.1v51.51h-18.83V1405.22Z"/><path d="M1345.71,1516.08h-21v-51.51H1256.1v51.51h-20.83V1404.22h20.83v46h68.56v-46h21Zm-19-2h17V1406.22h-17v46H1254.1v-46h-16.83v107.86h16.83v-51.51h72.56Z"/><path d="M1527.39,1459c0,37.81-30.52,57.86-67.74,57.86-38.53,0-65.59-22.49-65.59-55.74,0-34.88,28.79-57.7,67.75-57.7C1501.64,1403.43,1527.39,1426.41,1527.39,1459Zm-113.2,1.79c0,23.47,16.89,44.5,46.54,44.5,29.87,0,46.75-20.7,46.75-45.64,0-21.84-15.15-44.66-46.54-44.66C1429.78,1415,1414.19,1436.68,1414.19,1460.8Z"/><path d="M1459.65,1517.87c-39.21,0-66.59-23.33-66.59-56.74,0-34.56,28.27-58.7,68.75-58.7,39.83,0,66.58,22.74,66.58,56.58,0,18.19-7,33.37-20.29,43.89C1495.93,1512.56,1478.72,1517.87,1459.65,1517.87Zm2.16-113.44c-39.3,0-66.75,23.31-66.75,56.7,0,15.95,6.22,29.64,18,39.57s27.86,15.17,46.6,15.17,35.39-5.16,47.21-14.53c12.78-10.14,19.53-24.77,19.53-42.33C1526.39,1426.36,1500.44,1404.43,1461.81,1404.43Zm-1.08,101.87c-14.26,0-26.4-4.76-35.11-13.75a45.28,45.28,0,0,1-12.43-31.75c0-23.29,14.77-46.8,47.75-46.8,14.76,0,27.13,5,35.78,14.47a46.6,46.6,0,0,1,11.76,31.19c0,12.82-4.42,24.49-12.45,32.86C1487.38,1501.54,1475.18,1506.3,1460.73,1506.3Zm.21-90.3c-22.77,0-45.75,13.85-45.75,44.8a43.28,43.28,0,0,0,11.87,30.36c8.32,8.59,20,13.14,33.67,13.14,31.6,0,45.75-22.42,45.75-44.64C1506.48,1438.63,1492.23,1416,1460.94,1416Z"/><path d="M1599.47,1417.28H1555.1v-12.06h108v12.06h-44.59v97.8h-19Z"/><path d="M1619.52,1516.08h-21v-97.8H1554.1v-14.06h110v14.06h-44.59Zm-19-2h17v-97.8h44.59v-10.06h-106v10.06h44.37Z"/><path d="M1780.21,1463.57H1723.5v39.61h63.2v11.9h-82V1405.22h78.78v11.9h-60v34.72h56.71Z"/><path d="M1787.7,1516.08h-84V1404.22h80.78v13.9h-60v32.72h56.71v13.73H1724.5v37.61h63.2Zm-82-2h80v-9.9h-63.2v-41.61h56.71v-9.73H1722.5v-36.72h60v-9.9h-76.78Z"/><path d="M1836.48,1405.22h18.83v98h62.34v11.9h-81.17Z"/><path d="M1918.65,1516.08h-83.17V1404.22h20.83v98h62.34Zm-81.17-2h79.17v-9.9h-62.34v-98h-16.83Z"/><rect class="cls-1" x="501.6" y="48.42" width="116" height="1211" rx="46.5"/><path class="cls-2" d="M571.1,1266.92h-23a54.06,54.06,0,0,1-54-54V94.92a54.06,54.06,0,0,1,54-54h23a54.06,54.06,0,0,1,54,54v1118A54.06,54.06,0,0,1,571.1,1266.92Zm-23-1211a39.05,39.05,0,0,0-39,39v1118a39,39,0,0,0,39,39h23a39,39,0,0,0,39-39V94.92a39.05,39.05,0,0,0-39-39Z"/><path class="cls-3" d="M1291.24,786.15V683.24h-251.5q-47.58,0-71.38-23.81t-23.79-64.78a68.42,68.42,0,0,1,3.5-21.33,113.69,113.69,0,0,1,10.51-22.7q7-11.91,14.53-23t18.53-27.12L1257.18,107.9q26-38.76,42.9-56.2t40.55-17.46q76.59,0,76.61,96.36V559.24h21.55q38.57,0,61.87,11.63t23.3,50.92q0,32.12-19,46.78t-57.11,14.67h-30.56V786.15q0,42.61-17.14,63.34t-45.86,20.75q-28.21,0-45.61-21.29T1291.24,786.15ZM1075.82,559.24h215.42v-322Z"/><path class="cls-4" d="M1266.51,978.25q0,64-12,110.08t-44.29,83.52q-40.57,45.93-105,70.86t-143.15,24.92q-90.69,0-162.55-33.5t-108.27-92.74a253.48,253.48,0,0,1-27.14-71.61q-8.64-39.22-8.64-84.9,0-58.92,9.53-106.16t29.83-81.19Q730.08,741.45,797.2,712t160.22-29.4q61.46,0,111.58,13.06t88,38.22a242.75,242.75,0,0,1,64.16,62.2Q1266.5,860.47,1266.51,978.25Zm-164-7.81q0-71.41-13.11-116.89t-44.09-68.69q-31-23.22-85.78-23.23-78.66,0-109.35,51.92t-30.67,160q0,73.39,13.11,120.22t44.08,70.85q31,24,84,24,54.79,0,85.79-25t43.49-71.44Q1102.51,1045.76,1102.51,970.44Z"/><path class="cls-3" d="M1291.24,786.15V683.24h-251.5q-47.58,0-71.38-23.81t-23.79-64.78a68.42,68.42,0,0,1,3.5-21.33,113.69,113.69,0,0,1,10.51-22.7q7-11.91,14.53-23t18.53-27.12L1257.18,107.9q26-38.76,42.9-56.2t40.55-17.46q76.59,0,76.61,96.36V559.24h21.55q38.57,0,61.87,11.63t23.3,50.92q0,32.12-19,46.78t-57.11,14.67h-30.56V786.15q0,42.61-17.14,63.34t-45.86,20.75q-28.21,0-45.61-21.29T1291.24,786.15ZM1075.82,559.24h215.42v-322Z"/><path class="cls-5" d="M1270.51,681.32q0,53.37-12,91.77t-44.29,69.62q-40.79,38.38-105.55,59.19T964.78,922.71q-91.17,0-163.42-28t-108.85-77.4a190.61,190.61,0,0,1-27.29-59.72q-8.73-32.7-8.71-70.77,0-49.12,9.6-88.51t30-67.69q35.35-46.83,102.82-71.38t161-24.56q61.76,0,112.12,10.91t88.44,31.87q38.07,21,64.47,51.89Q1270.52,583.08,1270.51,681.32Zm-164-6.52q0-59.52-13.2-97.45t-44.41-57.28q-31.19-19.37-86.39-19.36-79.21,0-110.11,43.28T821.51,677.41q0,61.17,13.21,100.22t44.39,59.06q31.18,20,84.61,20,55.18,0,86.39-20.83t43.79-59.54Q1106.51,737.61,1106.51,674.8Z"/><circle class="cls-1" cx="1355.43" cy="942.64" r="37.67"/><path class="cls-2" d="M1355.43,985.81a43.17,43.17,0,1,1,43.17-43.16A43.21,43.21,0,0,1,1355.43,985.81Zm0-75.33a32.17,32.17,0,1,0,32.17,32.17A32.2,32.2,0,0,0,1355.43,910.48Z"/><circle class="cls-6" cx="1355.1" cy="1050.92" r="42"/><path class="cls-2" d="M1355.1,1098.42a47.5,47.5,0,1,1,47.5-47.5A47.56,47.56,0,0,1,1355.1,1098.42Zm0-84a36.5,36.5,0,1,0,36.5,36.5A36.54,36.54,0,0,0,1355.1,1014.42Z"/><circle class="cls-1" cx="1354.99" cy="1179.03" r="63.89"/><path class="cls-2" d="M1355,1248.42a69.39,69.39,0,1,1,69.39-69.39A69.47,69.47,0,0,1,1355,1248.42Zm0-127.77a58.39,58.39,0,1,0,58.39,58.38A58.45,58.45,0,0,0,1355,1120.65Z"/><path class="cls-5" d="M1211.07,258.61q0,53.37-10,91.77a171.45,171.45,0,0,1-37,69.62q-34.15,38.38-88.38,59.19T955.16,500q-76.33,0-136.84-28t-91.14-77.41a209.91,209.91,0,0,1-22.85-59.71,326.31,326.31,0,0,1-7.26-70.77q0-49.12,8-88.52t25.09-67.68q29.61-46.83,86.08-71.38T951.05,12q51.71,0,93.86,10.91t74,31.87a203.08,203.08,0,0,1,54,51.89Q1211.07,160.37,1211.07,258.61Zm-137-6.52q0-59.52-11.08-97.45t-37.23-57.28Q999.6,78,953.3,78,886.88,78,861,121.28T835.07,254.7q0,61.17,11.06,100.22T883.37,414q26.14,20,71,20,46.26,0,72.45-20.83t36.74-59.55Q1074.05,314.9,1074.07,252.09Z"/></symbol></defs><use width="1918.65" height="1532.35" transform="translate(64.33 7.58) scale(0.03)" xlink:href="#New_Symbol_1"/></svg>